<svg width="188" height="172" viewBox="0 0 188 172" fill="none" xmlns="http://www.w3.org/2000/svg">
<circle cx="85.2542" cy="85.2542" r="79.2542" stroke="white" stroke-width="12"/>
<path d="M129.575 86.0859C129.575 108.753 124.184 128.982 115.78 143.339C107.292 157.839 96.4414 165.34 85.67 165.34C74.8986 165.34 64.0482 157.839 55.56 143.339C47.156 128.982 41.7651 108.753 41.7651 86.0859C41.7651 63.4185 47.156 43.1901 55.56 28.8332C64.0482 14.3325 74.8986 6.83173 85.67 6.83173C96.4414 6.83173 107.292 14.3325 115.78 28.8332C124.184 43.1901 129.575 63.4185 129.575 86.0859Z" stroke="white" stroke-width="12"/>
<path d="M85.6702 129.991C63.0028 129.991 42.7744 124.6 28.4174 116.196C13.9168 107.708 6.41601 96.8573 6.41601 86.0859C6.41601 75.3145 13.9168 64.4641 28.4174 55.9759C42.7744 47.5718 63.0028 42.181 85.6702 42.181C108.338 42.181 128.566 47.5718 142.923 55.9759C157.424 64.4641 164.924 75.3145 164.924 86.0859C164.924 96.8573 157.424 107.708 142.923 116.196C128.566 124.6 108.338 129.991 85.6702 129.991Z" stroke="white" stroke-width="12"/>
<path d="M5.82227 85.67H165.102" stroke="white" stroke-width="12"/>
<path d="M85.6699 5.82227V166.35" stroke="white" stroke-width="12"/>
<circle cx="130.181" cy="71.127" r="57.319" fill="black" stroke="black"/>
<path d="M107.8 139.318C119.363 137.115 155.373 120.044 165.102 112.702L105.216 117.692C110.458 122.538 106.785 139.511 107.8 139.318Z" fill="black" stroke="black" stroke-width="4" stroke-linecap="round"/>
<circle cx="129.714" cy="70.6607" r="48.9596" fill="white"/>
<path d="M116.193 128.013C125.985 126.148 150.852 112.781 159.091 106.564L113.861 112.16C118.3 116.263 115.334 128.177 116.193 128.013Z" fill="white" stroke="white" stroke-width="4" stroke-linecap="round"/>
<path d="M101.473 61.5493H158.032" stroke="black" stroke-width="10" stroke-linecap="round"/>
<path d="M101.473 79.8478L158.032 79.8478" stroke="black" stroke-width="10" stroke-linecap="round"/>
</svg>
